<?xml version="1.0" encoding="utf-8"?>
<!-- Svg Vector Icons : http://www.onlinewebfonts.com/icon -->
<!DOCTYPE svg PUBLIC "-//W3C//DTD SVG 1.1//EN" "http://www.w3.org/Graphics/SVG/1.1/DTD/svg11.dtd">
<svg version="1.1" xmlns="http://www.w3.org/2000/svg" xmlns:xlink="http://www.w3.org/1999/xlink" x="0px" y="0px" viewBox="0 0 1000 1000" enable-background="new 0 0 1000 1000" xml:space="preserve">
<metadata> Svg Vector Icons : http://www.onlinewebfonts.com/icon </metadata>
<g><g transform="translate(0.000000,511.000000) scale(0.100000,-0.100000)"><path d="M5260,4367.9c-1803.6-157-3329.6-1457-3771.9-3212.8c-34.5-135.9-72.7-331.2-86.2-430.8c-11.5-99.6-24.9-201-30.6-224l-7.7-44H731.8c-528.4,0-631.8-3.8-631.8-26.8c0-42.1,2029.5-2042.9,2104.2-2073.6c36.4-15.3,86.2-21.1,118.7-15.3c40.2,9.6,346.6,300.6,1089.4,1037.7C3981-58.8,4446.3,414.2,4446.3,429.5c0,23-103.4,26.8-620.3,26.8c-342.7,0-626.1,5.7-629.9,15.3c-13.4,21.1,38.3,245.1,93.8,415.5c114.9,348.5,319.7,681.6,582.1,947.8c478.7,484.4,1062.6,731.4,1742.3,735.2c317.8,0,482.5-23,765.9-114.9c402.1-128.3,725.7-331.2,1022.4-641.4c455.7-474.8,687.4-1047.3,687.4-1702.1c-1.9-693.1-254.6-1284.7-754.4-1771c-396.3-384.9-882.7-614.6-1430.3-679.7c-141.7-17.2-195.3-32.6-227.9-63.2l-44-38.3v-811.8v-811.8l49.8-49.8c49.8-47.9,53.6-49.8,243.2-36.4c1606.4,105.3,3048.1,1146.9,3658.9,2646c453.8,1112.4,415.5,2379.9-105.3,3463.6c-360,752.5-953.5,1397.7-1677.3,1828.5c-515,308.3-1139.2,513.1-1746.2,574.4C5872.7,4379.4,5438.1,4383.3,5260,4367.9z"/></g></g>
</svg>